# xmcd CD database file
#
# Track frame offsets:
#	150
#	13973
#	29133
#	53361
#	79121
#
# Disc length: 1265 seconds
#
# Revision: 1
# Processed by: cddbd v1.5.2PL0 Copyright (c) Steve Scherf et al.
# Submitted via: CDex 1.83
#
DISCID=3704ef05
DTITLE=divers - Vocalese ces solos qui nous chantent - Mon CD jazz magazine
DYEAR=2017
DGENRE=Jazz
TTITLE0=Marion Harris - Singin' The Blues
TTITLE1=Eddie Jefferson - Body and Soul
TTITLE2=Lambert, Hendricks and Ross   -  Everyday I Have the Blues
TTITLE3=Les Double Six - Stockholm Sweenin'
TTITLE4=Mark Murphy - Doodlin'
EXTD=YEAR: 2017
EXTT0=
EXTT1=
EXTT2=
EXTT3=
EXTT4=
PLAYORDER=
